<svg width="29" height="29" viewBox="0 0 29 29" fill="none" xmlns="http://www.w3.org/2000/svg">
<g clip-path="url(#clip0_35_186)">
<path d="M14.5 0C10.4956 0 6.87062 1.62281 4.24671 4.24671C1.62281 6.87062 0 10.4956 0 14.5C0 18.5044 1.62281 22.1294 4.24671 24.7533C6.87062 27.3772 10.4956 29 14.5 29C18.5044 29 22.1294 27.3772 24.7533 24.7533C27.3772 22.1294 29 18.5044 29 14.5C29 6.49223 22.5078 0 14.5 0ZM20.9595 14.9042L15.8884 19.9742C15.5776 20.2851 15.073 20.2851 14.7622 19.9742C14.4513 19.6634 14.4513 19.1589 14.7622 18.847L18.4726 15.1376H8.60466C8.16469 15.1376 7.80815 14.7811 7.80815 14.3411C7.80815 13.9011 8.16469 13.5436 8.60466 13.5436H18.4716L14.7622 9.83418C14.4513 9.52233 14.4513 9.01781 14.7622 8.70695C15.073 8.3961 15.5776 8.3961 15.8884 8.70695L20.9595 13.777C21.2703 14.0888 21.2703 14.5934 20.9595 14.9042Z" fill="#E5A951"/>
</g>
<defs>
<clipPath id="clip0_35_186">
<rect width="29" height="29" fill="white"/>
</clipPath>
</defs>
</svg>
