<svg width="1412" height="416" viewBox="0 0 1412 416" fill="none" xmlns="http://www.w3.org/2000/svg">
<g clip-path="url(#clip0_33_159)">
<path d="M450.78 415.63C439.83 413.71 428.8 412.18 417.95 409.8C391.44 404 367.38 392.61 345.29 376.96C343.8 375.9 342.31 374.84 340.83 373.75C333.74 368.55 334.06 368.93 327.12 374.75C313.78 385.92 299.2 395.12 282.72 401.21C269.8 405.98 256.57 408.83 242.95 411.02C224.46 413.99 205.92 414.16 187.54 412.98C168.02 411.72 148.6 407.67 130.57 399.55C117.2 393.54 104.17 386.68 91.45 379.39C84.72 375.53 78.77 370.19 72.83 365.09C66.33 359.51 59.6 353.97 54.13 347.45C45.43 337.08 37.07 326.3 29.67 314.98C17.5 296.36 9.44003 275.73 4.55003 254.13C-0.16997 233.31 -0.649971 212.06 0.580029 190.68C1.65003 172.19 5.54003 154.42 11.78 137.19C19.39 116.15 30.4 96.9501 44.39 79.3101C60.04 59.5801 78.72 43.6701 100.16 30.6301C119.96 18.5901 141.4 10.7601 163.8 5.76006C182.71 1.54006 202.15 0.480057 221.42 2.06006C239.14 3.51006 256.79 6.71006 273.57 12.8501C289.83 18.8001 305.32 26.5701 319.98 35.8201C324.81 38.8701 329.12 42.7301 334.17 46.6101C337.43 44.2301 340.99 41.6001 344.59 39.0201C382.68 11.7501 425.17 -1.02994 472.02 0.0600568C508.46 0.910057 542.29 10.6401 573.35 29.4801C611.58 52.6701 639.67 84.8901 657.49 125.93C664.48 142.03 669.06 158.81 671.8 176.11C672.01 177.42 672.22 178.74 672.32 180.06C672.72 184.873 670.56 187.283 665.84 187.29C655.18 187.29 644.52 187.22 633.86 187.33C630.7 187.36 629.18 186.58 628.64 183.05C622.09 140.61 601.95 105.74 568.37 79.1101C528.17 47.2301 482.27 37.1401 432.13 46.7901C408.98 51.2401 387.96 61.1901 368.91 75.1301C367.75 75.9801 366.87 77.2101 365.86 78.2701C391.77 110.26 405.52 146.73 410.27 187.36H367.08C365.18 169.17 359.58 152.15 351.9 135.9C348.01 127.66 342.64 120.11 337.73 112.38C336.33 110.17 334.4 109.25 332.27 112.25C317.41 133.21 307.62 156.24 303.88 181.68C303.24 186.05 301.77 187.51 297.3 187.4C284.85 187.1 272.38 187.29 258.93 187.29C259.93 181.03 260.76 175.38 261.75 169.76C267.44 137.42 280.54 108.27 300.44 82.2401C303.55 78.1701 302.6 76.4101 299.19 74.0501C284.96 64.1801 269.72 56.3101 253.05 51.5201C242.09 48.3701 230.95 46.3201 219.49 45.1301C195.97 42.6801 173.43 46.1801 151.39 53.7601C134.1 59.7101 118 68.1201 104.2 80.3001C96.02 87.5201 87.46 94.5801 80.58 102.94C73.15 111.98 66.59 122 61.26 132.42C55.5 143.66 50.95 155.64 47.13 167.7C44.6 175.69 44.22 184.37 43.01 192.75C42.47 196.49 41.79 200.29 41.98 204.02C42.43 212.88 42.79 221.81 44.25 230.54C45.96 240.75 48.1 251 51.32 260.82C56.97 278.03 65.67 293.7 77.06 307.97C90 324.17 105.19 337.5 122.93 348.25C139.53 358.31 157.34 365.3 176.28 368.31C190.71 370.6 205.61 371.03 220.25 370.63C234.57 370.23 248.78 367.67 262.51 362.87C273.5 359.03 283.28 353.26 292.63 346.56C295.29 344.65 297.45 341.92 300.29 340.42C303.95 338.49 303.12 336.74 301.19 334.26C277.48 303.68 264.02 268.96 259.3 230.72C259.24 230.24 259.36 229.75 259.44 228.79C260.63 228.6 261.86 228.23 263.09 228.22C274.92 228.18 286.74 228.29 298.56 228.13C301.91 228.09 303.25 229.29 303.71 232.57C307.27 258.05 316.87 281.15 331.65 302.16C334.16 305.73 335.57 305.73 337.76 302.31C348.37 285.74 357.57 268.46 363.33 249.57C365.47 242.57 366.9 235.35 368.83 227.53C372.39 227.53 376.51 227.53 380.64 227.53C389.63 227.53 398.63 227.43 407.62 227.64C408.89 227.67 411.3 229.36 411.21 229.99C407.66 254.76 400.44 278.39 388.22 300.31C381.39 312.56 374.08 324.55 366.51 337.48C366.85 337.86 367.78 339.44 369.16 340.38C422.73 377.28 479.82 383.3 538.29 355.1C589.39 330.46 619.38 288.31 628.69 232.07C629.18 229.12 630.37 228.14 633.2 228.16C645.02 228.24 656.85 228.29 668.67 228.14C672.26 228.09 672.79 229.74 672.5 232.76C670.9 249.76 666.65 266.14 660.55 282C647.9 314.88 628.08 342.83 601.27 365.75C573.26 389.71 541.14 405.25 504.82 411.93C497.16 413.34 489.43 414.4 481.74 415.63H450.76H450.78ZM363.25 77.6601C362.82 76.7801 362.62 75.8901 362.08 75.3501C353.38 66.6801 344.68 58.0101 335.79 49.5401C335.09 48.8801 332.39 49.1401 331.6 49.9401C323.44 58.1601 315.54 66.6301 307.45 74.9201C305.51 76.9101 305.99 78.0701 307.78 79.7901C315.91 87.6201 324.03 95.4601 331.87 103.57C334.25 106.03 335.73 105.96 337.94 103.73C345.65 95.9401 353.45 88.2301 361.18 80.4601C361.97 79.6701 362.53 78.6501 363.25 77.6601ZM363.37 337.96C362.83 337.01 362.56 336.19 362.02 335.64C353.71 327.29 345.43 318.92 336.93 310.77C336.25 310.12 333.51 310.51 332.62 311.36C324.22 319.36 315.96 327.52 307.84 335.81C307.05 336.62 306.82 339.33 307.5 340.04C315.45 348.26 323.7 356.19 331.68 364.39C333.81 366.58 335.43 366.71 337.49 364.67C345.37 356.84 353.26 349.03 361.11 341.17C362 340.27 362.6 339.09 363.38 337.97L363.37 337.96Z" fill="white"/>
<path d="M1041.38 415.63C1041.54 404.35 1041.75 393.08 1041.86 381.8C1041.93 374.36 1041.87 366.91 1041.87 359.59C1051.83 357.78 1052.39 358.24 1056.18 366.82C1060.26 376.07 1064.67 385.19 1068.96 394.34C1069.21 394.87 1069.78 395.26 1070.78 396.36C1073.36 391.04 1075.72 386.21 1078.03 381.36C1080.39 376.42 1082.8 371.5 1084.99 366.48C1088.63 358.14 1089.07 357.84 1099.32 359.62V415.62H1090.33V375.84C1084.76 385.22 1080.19 394.75 1075.76 404.33C1074.67 406.69 1073.26 408.55 1070.56 407.64C1068.65 407 1066.51 405.84 1065.4 404.26C1063.62 401.72 1062.62 398.64 1061.26 395.8C1057.92 388.83 1054.56 381.88 1051.2 374.92C1050.92 375.04 1050.64 375.16 1050.36 375.29V415.62H1041.37L1041.38 415.63Z" fill="white"/>
<path d="M759.57 415.63V359.18C769.53 359.18 779.28 358.86 789 359.31C793.95 359.54 797.06 363.03 797.86 368.02C798.82 374 799.52 380 794.36 384.49C803.55 397.21 802.27 409.89 791.56 415.63H759.58H759.57ZM778.9 389.63C771.327 389.63 767.543 393.467 767.55 401.14C767.55 402.3 767.16 403.67 767.65 404.56C768.36 405.84 769.65 407.62 770.79 407.69C776.07 408.02 781.38 407.8 786.69 407.86C790.02 407.9 791.39 406.18 791.72 403.05C793.02 390.81 792.01 389.63 779.9 389.63C779.57 389.63 779.24 389.63 778.91 389.63H778.9ZM767.73 381.75C774.06 381.75 779.87 382.01 785.63 381.57C787.15 381.45 789.26 379.4 789.76 377.81C790.48 375.55 790.3 372.83 789.85 370.44C789.6 369.13 788.05 367.12 787 367.07C780.62 366.76 774.22 366.91 767.72 366.91V381.76L767.73 381.75Z" fill="white"/>
<path d="M992.41 415.63C985.49 413.8 982.94 408.78 982.88 402.19C982.77 392.21 982.65 382.23 982.91 372.26C983.16 362.8 987.49 358.95 997.12 358.93C1003.12 358.92 1009.11 358.87 1015.11 358.94C1023.43 359.04 1027.49 362.8 1027.68 371.03C1027.91 381.33 1027.6 391.65 1027.87 401.95C1028.05 408.56 1025.63 413.17 1019.4 415.63H992.42H992.41ZM991.36 386.71C991.36 391.85 991.39 396.99 991.36 402.13C991.34 405.9 992.72 408.04 996.94 407.91C1002.75 407.73 1008.56 407.78 1014.37 407.89C1017.98 407.96 1019.58 406.21 1019.59 402.79C1019.62 392.51 1019.59 382.23 1019.6 371.95C1019.6 368.21 1017.82 366.62 1014.03 366.73C1008.22 366.9 1002.4 366.89 996.6 366.73C992.94 366.63 991.42 368.4 991.39 371.78C991.34 376.75 991.38 381.73 991.37 386.7L991.36 386.71Z" fill="white"/>
<path d="M931.45 415.63C931.61 404.35 931.82 393.06 931.93 381.78C932 374.34 931.94 366.89 931.94 359.04C942.32 359.04 952.11 358.74 961.86 359.16C967.44 359.4 971.03 363.3 971.48 368.9C971.88 373.85 971.82 378.88 971.5 383.85C971.21 388.53 968.8 391.98 963.77 393.25C967.05 400.87 970.23 408.25 973.41 415.63H965.42C962.39 409.57 959.45 403.46 956.26 397.48C955.5 396.05 954 394.2 952.66 394.04C948.78 393.58 944.81 393.88 940.44 393.88V415.63H931.45ZM940.66 386.25C943.89 386.25 946.84 386.27 949.8 386.25C965.96 386.14 963.29 388.19 963.49 370.89C963.49 370.72 963.54 370.5 963.46 370.4C962.33 369.21 961.24 367.07 960.04 367.01C953.64 366.67 947.22 366.85 940.66 366.85V386.24V386.25Z" fill="white"/>
<path d="M1267.23 415.63C1267.39 404.36 1267.6 393.09 1267.71 381.82C1267.78 374.38 1267.72 366.94 1267.72 359.22H1304.84V366.66H1276.47V381.58H1301.97C1303.96 388.95 1303.48 389.62 1296.68 389.63C1290.06 389.64 1283.45 389.63 1276.49 389.63V407.63H1305.2V415.62H1267.23V415.63Z" fill="white"/>
<path d="M1209.27 415.63C1209.43 404.36 1209.64 393.08 1209.75 381.81C1209.82 374.37 1209.76 366.92 1209.76 359.21H1218.03V381.43H1244.74V359.29H1253.24V415.64H1245.25C1245.11 408.37 1245.09 401.08 1244.72 393.82C1244.65 392.42 1243.25 389.94 1242.39 389.91C1234.5 389.61 1226.59 389.73 1218.27 389.73V415.64H1209.28L1209.27 415.63Z" fill="white"/>
<path d="M879.49 415.63C879.65 404.35 879.86 393.07 879.97 381.79C880.04 374.35 879.98 366.9 879.98 359.03C890.34 359.03 900.12 358.69 909.87 359.15C915.99 359.44 919.48 363.75 919.86 370.25C920.12 374.72 920.09 379.23 919.89 383.71C919.57 391.08 916.22 394.7 908.76 395.13C902.18 395.51 895.56 395.21 888.47 395.21V415.62H879.48L879.49 415.63ZM888.65 387.85C895.02 387.85 900.81 387.85 906.61 387.85C909.78 387.85 911.6 386.48 911.55 383.08C911.5 379.11 911.83 375.11 911.39 371.19C911.22 369.66 909.5 367.15 908.36 367.08C901.83 366.68 895.27 366.89 888.64 366.89V387.85H888.65Z" fill="white"/>
<path d="M1113.33 415.63V359.2H1150.15V366.76C1143.4 366.76 1136.96 366.76 1130.51 366.76C1124.42 366.76 1121.38 369.87 1121.39 376.09C1121.39 377.73 1121.39 379.36 1121.39 381.53H1147.82V389.63C1141.19 389.63 1134.42 389.93 1127.7 389.53C1122.74 389.24 1121.08 390.62 1121.26 395.84C1121.67 407.85 1121.37 407.86 1133.38 407.86C1138.84 407.86 1144.3 407.86 1150.3 407.86V415.62H1113.33V415.63Z" fill="white"/>
<path d="M1324.19 415.63C1317.85 413.29 1315.56 408.65 1315.68 402.06C1315.91 389.28 1315.74 376.5 1315.76 363.72C1315.76 362.28 1315.98 360.84 1316.12 359.18H1323.4C1323.53 360.87 1323.76 362.6 1323.77 364.33C1323.8 376.61 1323.76 388.9 1323.81 401.18C1323.83 406.95 1324.75 407.82 1330.45 407.86C1334.94 407.89 1339.43 407.9 1343.92 407.86C1349.55 407.81 1350.68 406.79 1350.71 401.2C1350.78 389.08 1350.74 376.97 1350.74 364.85C1350.74 363.07 1350.74 361.29 1350.74 359.23H1358.8C1358.8 361.64 1358.8 363.91 1358.8 366.19C1358.8 377.98 1358.73 389.76 1358.82 401.55C1358.87 408.12 1356.86 413.27 1350.18 415.65H1324.2L1324.19 415.63Z" fill="white"/>
<path d="M1373.16 415.63C1371.07 413.71 1367.74 412.39 1369.95 407.87C1377.24 407.87 1384.85 407.83 1392.46 407.89C1395.84 407.92 1398.76 407.8 1399.13 403.26C1399.79 395.15 1398.95 393.06 1393.81 391.94C1388.62 390.81 1383.39 389.84 1378.23 388.61C1372.21 387.17 1369.57 383.89 1369.27 377.72C1369.15 375.24 1369.15 372.74 1369.27 370.25C1369.63 363.6 1373.56 359.34 1380.21 359.03C1386.68 358.72 1393.18 358.8 1399.66 359.06C1401.26 359.12 1403.09 360.22 1404.28 361.39C1405.16 362.25 1405.59 364.07 1405.37 365.32C1405.26 365.97 1403.32 366.7 1402.2 366.72C1395.88 366.86 1389.56 366.85 1383.24 366.77C1380.02 366.73 1377.8 367.46 1377.5 371.29C1376.93 378.6 1377.73 380.68 1382.19 381.63C1387.55 382.77 1392.91 383.86 1398.29 384.91C1403.79 385.98 1406.65 389.49 1407.22 394.83C1407.56 397.95 1407.5 401.13 1407.36 404.27C1407.11 409.79 1404.23 413.55 1399.14 415.66H1373.16V415.63Z" fill="white"/>
<path d="M1174.29 415.63C1174.4 400.51 1174.6 385.4 1174.48 370.28C1174.48 369.1 1172.41 367.2 1171.05 366.94C1168.32 366.41 1165.42 366.77 1162.59 366.77C1155.74 366.75 1155.56 366.53 1156.75 359.31H1201.07V366.78H1183.29V415.63H1174.3H1174.29Z" fill="white"/>
<path d="M825.53 415.63C825.49 415.47 825.39 415.3 825.42 415.15C828.27 397.55 819.69 383.46 811.38 369.27C809.96 366.84 808.69 364.32 807.46 361.79C807.21 361.27 807.42 360.52 807.42 359.58C811.88 358.08 815.12 358.51 817.42 363.39C820.93 370.82 825.02 377.97 829.36 386.2C834.04 377.48 838.04 369.74 842.39 362.2C843.26 360.7 845.41 359.25 847.11 359.07C851.95 358.56 852.54 359.72 850.24 363.98C845.97 371.86 841.76 379.78 837.39 387.61C834.67 392.48 832.84 397.43 833.39 403.19C833.79 407.31 833.5 411.49 833.51 415.64H825.52L825.53 415.63Z" fill="white"/>
<path d="M1053.27 122.31C1053.27 125.78 1053.27 129.25 1053.27 132.73C1053.27 193.09 1053.27 253.46 1053.27 313.82C1053.27 318.2 1051.12 320.393 1046.83 320.4C1041.7 320.4 1036.57 320.4 1031.06 320.4C1030.92 318.48 1030.7 317.05 1030.72 315.62C1032.49 215.2 1034.3 114.78 1035.97 14.3599C1036.04 10.1299 1037.36 8.83993 1041.42 9.14993C1045.39 9.45993 1049.43 9.48993 1053.4 9.14993C1057.78 8.76993 1059.44 10.1399 1059.75 14.7599C1061.23 36.4899 1063.1 58.1799 1064.82 79.8899C1068.44 125.46 1072.05 171.03 1075.69 216.6C1075.78 217.67 1076.14 218.71 1077.33 219.74C1077.91 213.52 1078.57 207.3 1079.06 201.07C1083.6 143.23 1088.11 85.3899 1092.65 27.5499C1093.04 22.5799 1093.4 17.5899 1094.11 12.6599C1094.29 11.4299 1095.75 9.44993 1096.69 9.40993C1103.3 9.12993 1109.92 9.25993 1117.23 9.25993C1119.05 113.13 1120.85 216.44 1122.66 320.08H1100.13V122.86C1099.68 122.84 1099.22 122.82 1098.77 122.79C1098.01 130.9 1097.2 139.01 1096.5 147.12C1092.34 195.65 1088.21 244.18 1084.06 292.71C1083.89 294.7 1083.34 296.69 1083.43 298.65C1083.62 302.94 1081.54 303.84 1077.63 303.7C1070.41 303.44 1070.43 303.65 1069.79 296.44C1065.41 246.76 1061.01 197.09 1056.65 147.41C1055.92 139.03 1055.41 130.63 1054.8 122.24C1054.28 122.26 1053.76 122.28 1053.24 122.3L1053.27 122.31Z" fill="white"/>
<path d="M846.37 8.19995C863.37 9.31995 880.15 9.71995 896.73 11.78C906.18 12.95 912.16 19.86 913.94 29.5499C914.54 32.7999 914.94 36.1399 914.94 39.4399C915.01 71.1999 914.99 102.95 914.97 134.71C914.97 136.54 914.96 138.38 914.74 140.19C913.76 148.15 912.59 156.03 901.89 158.53C913.77 165.21 915 175.57 914.99 186.52C914.97 229.25 914.91 271.98 915.08 314.71C915.1 319.37 913.72 320.8 909.18 320.5C903.74 320.14 898.27 320.42 892.22 320.42V313.99C892.22 269.27 892.22 224.54 892.22 179.82C892.22 169.51 889.19 166.2 878.89 165.18C871.897 164.487 868.4 167.57 868.4 174.43C868.4 221.15 868.35 267.87 868.49 314.59C868.5 319.01 867.54 320.9 862.74 320.52C857.46 320.1 852.13 320.42 846.36 320.42V8.19995H846.37ZM868.41 89.31C868.41 106.92 868.41 124.53 868.41 142.14C868.41 153.72 869.16 154.31 880.9 152.02C890 150.24 892.22 147.53 892.23 138.15C892.23 120.71 892.23 103.26 892.23 85.82C892.23 69.87 892.26 53.92 892.21 37.97C892.18 30.19 889.75 27.44 882.1 26.56C879.3 26.24 876.42 26.56 873.63 26.22C869.38 25.68 868.29 27.42 868.33 31.5C868.52 50.77 868.41 70.04 868.41 89.31Z" fill="white"/>
<path d="M937.65 166.3C937.65 125.58 937.65 84.8601 937.65 44.1501C937.65 41.8201 937.63 39.4901 937.72 37.1701C938.5 18.1301 949.05 7.49007 968.19 6.84007C973.13 6.67007 978.21 6.94007 983.05 7.90007C997.52 10.7701 1005.23 19.6401 1006.54 34.2701C1006.78 36.9101 1006.75 39.5801 1006.75 42.2401C1006.76 124.17 1006.81 206.11 1006.66 288.04C1006.65 294.27 1005.88 300.7 1004.22 306.69C1001.87 315.15 995.9 321.3 987.51 323.85C974.02 327.96 960.59 328.45 948.61 319.11C942.06 314 938.74 307.04 938.23 298.91C937.74 291.12 937.68 283.3 937.67 275.5C937.62 239.1 937.65 202.71 937.65 166.31V166.3ZM960.19 165.33C960.19 176.14 960.19 186.95 960.19 197.75C960.19 228.51 960.12 259.27 960.27 290.03C960.29 294.44 960.8 299.03 962.13 303.2C963.68 308.05 968.05 309.74 972.96 309.42C977.66 309.11 981.51 307.02 982.55 302.16C983.48 297.82 983.99 293.32 983.99 288.88C984.07 206.41 984.05 123.93 984.05 41.4601C984.05 39.6301 984.03 37.8001 983.96 35.9701C983.64 27.5101 979.99 23.6401 972.3 23.5901C964.36 23.5401 960.65 27.3901 960.3 36.1101C960.21 38.4301 960.2 40.7601 960.2 43.0901C960.2 83.8301 960.2 124.57 960.2 165.3L960.19 165.33Z" fill="white"/>
<path d="M1193.33 188.97C1199.91 188.97 1206.21 189.05 1212.5 188.94C1215.95 188.88 1215.55 191.22 1215.56 193.36C1215.58 207.16 1215.57 220.96 1215.57 234.76C1215.57 253.05 1215.56 271.34 1215.59 289.63C1215.59 292.62 1215.62 295.63 1215.94 298.59C1216.69 305.51 1220.89 309.45 1227.27 309.48C1233.67 309.51 1237.82 305.67 1238.83 298.75C1238.95 297.93 1239.06 297.09 1239.05 296.27C1238.81 271.51 1239.12 246.72 1238.13 221.99C1237.16 197.87 1228.76 175.92 1215.05 156.07C1199.83 134.04 1192.3 109.79 1192.82 82.98C1193.1 68.35 1192.8 53.72 1192.88 39.09C1193 19.37 1205.09 7.13996 1224.96 6.78996C1229.25 6.70996 1233.65 6.97996 1237.83 7.85996C1252.14 10.88 1261.26 20.66 1261.61 35.34C1262.24 62.09 1261.85 88.87 1261.95 115.64C1261.95 118.28 1260.84 119.11 1258.34 119.05C1253.68 118.94 1249 118.78 1244.36 119.1C1240.38 119.37 1239.21 117.96 1239.23 114.03C1239.38 90.25 1239.32 66.48 1239.28 42.7C1239.28 39.55 1239.23 36.36 1238.72 33.26C1237.67 26.83 1233.27 23.42 1226.83 23.62C1220.71 23.81 1216.08 27.37 1216.03 33.77C1215.8 59.96 1213.13 86.32 1220.21 112.12C1225.02 129.67 1234.35 145.06 1244.16 160.06C1255.7 177.71 1261.86 196.73 1261.88 217.77C1261.9 242.38 1261.93 266.98 1261.91 291.59C1261.9 303.24 1259.27 314.01 1248.77 320.68C1236.27 328.62 1222.64 328.43 1209.55 322.78C1198.04 317.81 1193.11 307.58 1193.04 295.36C1192.85 260.61 1192.93 225.86 1192.92 191.11C1192.92 190.63 1193.09 190.15 1193.32 188.94L1193.33 188.97Z" fill="white"/>
<path d="M1411.13 119.02C1404.58 119.02 1398.45 118.95 1392.32 119.05C1388.61 119.11 1389.05 116.56 1389.05 114.26C1389.03 100.79 1389.05 87.33 1389.03 73.86C1389.01 61.39 1389.19 48.91 1388.81 36.46C1388.54 27.69 1384.23 23.5 1376.82 23.64C1371.06 23.75 1367.07 26.97 1365.82 32.58C1365.6 33.55 1365.39 34.55 1365.4 35.54C1365.63 54.48 1365.23 73.47 1366.33 92.36C1367.62 114.51 1377.69 133.69 1388.99 152.34C1395 162.25 1401.02 172.33 1405.33 183.02C1408.68 191.33 1410.82 200.66 1411.04 209.6C1411.76 238.68 1411.64 267.78 1411.26 296.87C1411.08 310.4 1403.3 320.99 1391.24 324.32C1377.86 328.01 1364.46 328.25 1352.89 318.65C1345.43 312.45 1342.84 303.92 1342.71 294.64C1342.49 278.52 1342.57 262.39 1342.55 246.26C1342.53 229.13 1342.55 212.01 1342.55 194.88V189.25H1365.3V195.61C1365.3 227.2 1365.28 258.79 1365.33 290.38C1365.33 293.69 1365.35 297.07 1365.98 300.31C1367.14 306.3 1371.41 309.56 1377.28 309.51C1383.18 309.45 1387.13 306.1 1388.36 300.04C1388.56 299.07 1388.71 298.06 1388.7 297.07C1388.45 271.48 1388.79 245.86 1387.73 220.31C1386.76 196.87 1378.28 175.59 1364.95 156.35C1348.85 133.12 1341.67 107.44 1342.49 79.29C1342.85 67 1342.95 54.67 1342.47 42.38C1341.25 11.34 1365.43 3.59997 1386.37 7.60997C1402.47 10.69 1411.29 21.02 1411.49 37.08C1411.8 63.35 1411.59 89.62 1411.58 115.89C1411.58 116.7 1411.36 117.51 1411.14 119.04L1411.13 119.02Z" fill="white"/>
<path d="M781.55 320.02H759.25V9.23002C775.53 9.54002 791.55 7.90002 807.28 11.69C822.33 15.31 827.98 22.28 828.05 37.81C828.2 72.73 828.22 107.65 828.05 142.57C827.97 158.55 820.25 167.2 804.41 169.51C798.67 170.35 792.8 170.83 787.01 170.72C782.55 170.63 781.45 172.03 781.46 176.38C781.61 221.94 781.55 267.51 781.55 313.07V320.02ZM781.55 89.83C781.55 108.11 781.55 126.39 781.55 144.67C781.55 151.61 785.09 154.623 792.17 153.71C802.37 152.36 805.34 149 805.34 138.73C805.34 109.48 805.34 80.23 805.34 50.98C805.34 46.33 805.42 41.67 805.3 37.02C805.13 30.33 802.89 27.71 796.23 26.74C793.12 26.29 789.9 26.61 786.78 26.22C782.54 25.69 781.43 27.4 781.47 31.49C781.66 50.93 781.55 70.38 781.55 89.82V89.83Z" fill="white"/>
<path d="M1325.23 147.91V164.86H1302.7C1302.59 167.37 1302.43 169.32 1302.43 171.26C1302.42 213.32 1302.49 255.39 1302.32 297.45C1302.3 302.12 1303.34 303.99 1308.32 303.66C1314.62 303.24 1320.97 303.66 1327.3 303.52C1330.25 303.45 1331.51 304.38 1331.43 307.48C1331.06 323.41 1333.7 320.07 1319.26 320.35C1308.61 320.55 1297.95 320.43 1287.29 320.38C1278.65 320.34 1279.44 321.44 1279.43 312.76C1279.41 236.28 1279.43 159.8 1279.43 83.32C1279.43 60.87 1279.43 38.43 1279.43 15.98C1279.43 14.01 1279.43 12.05 1279.43 9.97998C1280.44 9.64998 1281.04 9.29998 1281.63 9.28998C1296.95 9.23998 1312.27 9.26998 1327.59 9.16998C1330.35 9.14998 1331.3 10.13 1331.45 12.91C1332.18 26.21 1332.26 26.21 1319.16 26.21C1313.85 26.21 1308.54 26.21 1302.75 26.21C1302.63 28.41 1302.44 30.18 1302.44 31.96C1302.42 68.7 1302.51 105.45 1302.33 142.19C1302.31 146.81 1303.64 148.31 1308.23 147.99C1313.68 147.61 1319.18 147.9 1325.24 147.9L1325.23 147.91Z" fill="white"/>
<path d="M1171.94 320.09H1149.59V9.58008H1171.94V320.09Z" fill="white"/>
</g>
<defs>
<clipPath id="clip0_33_159">
<rect width="1411.65" height="415.63" fill="white"/>
</clipPath>
</defs>
</svg>
